<svg width="300" height="160" viewBox="0 0 300 160" fill="none" xmlns="http://www.w3.org/2000/svg">
<rect width="300" height="160" fill="#D9D9D9" fill-opacity="0.5"/>
<path d="M138.25 74L142 77.6V84.8C142 85.1183 141.868 85.4235 141.634 85.6485C141.399 85.8736 141.081 86 140.75 86H133.25C132.918 86 132.6 85.8736 132.366 85.6485C132.132 85.4235 132 85.1183 132 84.8V75.2C132 74.8817 132.132 74.5765 132.366 74.3515C132.6 74.1264 132.918 74 133.25 74H138.25ZM140.75 84.8V78.2H137.625V75.2H133.25V84.8H140.75ZM140.125 80.6V84.2H133.875L137 81.2L138.25 82.4L140.125 80.6ZM135.75 79.1C135.75 79.3387 135.651 79.5676 135.475 79.7364C135.3 79.9052 135.061 80 134.812 80C134.564 80 134.325 79.9052 134.15 79.7364C133.974 79.5676 133.875 79.3387 133.875 79.1C133.875 78.8613 133.974 78.6324 134.15 78.4636C134.325 78.2948 134.564 78.2 134.812 78.2C135.061 78.2 135.3 78.2948 135.475 78.4636C135.651 78.6324 135.75 78.8613 135.75 79.1Z" fill="#828282"/>
<path d="M145.854 85V83.208H147.128V85H145.854ZM148.988 76.474V74.78H150.528V76.474H148.988ZM148.134 87.674C147.798 87.674 147.481 87.6227 147.182 87.52C146.874 87.4173 146.604 87.2587 146.37 87.044L147.056 86.008C147.178 86.12 147.318 86.1993 147.476 86.246C147.635 86.302 147.794 86.33 147.952 86.33C148.223 86.33 148.461 86.2273 148.666 86.022C148.881 85.826 148.988 85.574 148.988 85.266V77.678H150.528V85.154C150.528 85.6487 150.416 86.0827 150.192 86.456C149.978 86.8387 149.688 87.1373 149.324 87.352C148.96 87.5667 148.564 87.674 148.134 87.674ZM156.535 85.14C155.947 85.14 155.429 85 154.981 84.72C154.533 84.44 154.178 84.076 153.917 83.628V87.982H152.377V77.678H153.735V78.994C154.015 78.5553 154.379 78.2053 154.827 77.944C155.275 77.6827 155.774 77.552 156.325 77.552C156.997 77.552 157.59 77.7293 158.103 78.084C158.626 78.4293 159.036 78.8913 159.335 79.47C159.634 80.0393 159.783 80.66 159.783 81.332C159.783 82.0413 159.643 82.6853 159.363 83.264C159.083 83.8333 158.7 84.2907 158.215 84.636C157.73 84.972 157.17 85.14 156.535 85.14ZM156.031 83.824C156.47 83.824 156.848 83.7073 157.165 83.474C157.492 83.2313 157.744 82.9233 157.921 82.55C158.108 82.1673 158.201 81.7613 158.201 81.332C158.201 80.884 158.098 80.4733 157.893 80.1C157.697 79.7267 157.426 79.428 157.081 79.204C156.745 78.98 156.358 78.868 155.919 78.868C155.658 78.868 155.382 78.9333 155.093 79.064C154.813 79.1947 154.566 79.3673 154.351 79.582C154.136 79.7967 153.992 80.0393 153.917 80.31V82.228C154.104 82.676 154.388 83.054 154.771 83.362C155.163 83.67 155.583 83.824 156.031 83.824ZM164.066 85.07C163.403 85.07 162.82 84.8973 162.316 84.552C161.821 84.2067 161.429 83.754 161.14 83.194C160.86 82.6247 160.72 82.0087 160.72 81.346C160.72 80.6553 160.865 80.0207 161.154 79.442C161.443 78.8633 161.84 78.406 162.344 78.07C162.857 77.7247 163.45 77.552 164.122 77.552C164.71 77.552 165.223 77.692 165.662 77.972C166.11 78.252 166.479 78.616 166.768 79.064V77.678H168.126V84.79C168.126 85.4993 167.953 86.1013 167.608 86.596C167.272 87.0907 166.81 87.4687 166.222 87.73C165.634 87.9913 164.971 88.122 164.234 88.122C163.422 88.122 162.745 87.982 162.204 87.702C161.672 87.422 161.224 87.0393 160.86 86.554L161.728 85.742C162.008 86.134 162.367 86.4327 162.806 86.638C163.254 86.8433 163.73 86.946 164.234 86.946C164.654 86.946 165.041 86.8667 165.396 86.708C165.76 86.5587 166.049 86.3253 166.264 86.008C166.479 85.6907 166.586 85.2847 166.586 84.79V83.67C166.325 84.1087 165.965 84.454 165.508 84.706C165.051 84.9487 164.57 85.07 164.066 85.07ZM164.57 83.824C164.878 83.824 165.172 83.7587 165.452 83.628C165.732 83.488 165.97 83.306 166.166 83.082C166.371 82.858 166.511 82.62 166.586 82.368V80.45C166.399 79.9833 166.105 79.6053 165.704 79.316C165.312 79.0173 164.897 78.868 164.458 78.868C164.01 78.868 163.623 78.9893 163.296 79.232C162.979 79.4747 162.731 79.792 162.554 80.184C162.377 80.5667 162.288 80.968 162.288 81.388C162.288 81.836 162.386 82.2467 162.582 82.62C162.787 82.984 163.063 83.278 163.408 83.502C163.753 83.7167 164.141 83.824 164.57 83.824Z" fill="#828282"/>
</svg>
