<svg width="74" height="74" viewBox="0 0 74 74" fill="none" xmlns="http://www.w3.org/2000/svg">
<path d="M60.5455 0H13.4545C6.02381 0 0 6.02381 0 13.4545V60.5455C0 67.9762 6.02381 74 13.4545 74H60.5455C67.9762 74 74 67.9762 74 60.5455V13.4545C74 6.02381 67.9762 0 60.5455 0Z" fill="white"/>
<path fill-rule="evenodd" clip-rule="evenodd" d="M37 30.1482C40.7841 30.1482 43.8519 27.0804 43.8519 23.2963C43.8519 19.5122 40.7841 16.4445 37 16.4445C33.2159 16.4445 30.1482 19.5122 30.1482 23.2963C30.1482 27.0804 33.2159 30.1482 37 30.1482ZM23.2963 43.8519C27.0804 43.8519 30.1482 40.7841 30.1482 37C30.1482 33.2159 27.0804 30.1482 23.2963 30.1482C19.5122 30.1482 16.4445 33.2159 16.4445 37C16.4445 40.7841 19.5122 43.8519 23.2963 43.8519ZM57.5556 37C57.5556 40.7841 54.4878 43.8519 50.7037 43.8519C46.9196 43.8519 43.8519 40.7841 43.8519 37C43.8519 33.2159 46.9196 30.1482 50.7037 30.1482C54.4878 30.1482 57.5556 33.2159 57.5556 37ZM37 57.5556C40.7841 57.5556 43.8519 54.4878 43.8519 50.7037C43.8519 46.9196 40.7841 43.8519 37 43.8519C33.2159 43.8519 30.1482 46.9196 30.1482 50.7037C30.1482 54.4878 33.2159 57.5556 37 57.5556Z" fill="url(#paint0_radial)"/>
<defs>
<radialGradient id="paint0_radial" cx="0" cy="0" r="1" gradientUnits="userSpaceOnUse" gradientTransform="translate(50.7037 19.8704) rotate(150.376) scale(50.2486 44.5999)">
<stop stop-color="#31DCF3"/>
<stop offset="0.452238" stop-color="#3CABFC"/>
<stop offset="1" stop-color="#1E5FF6"/>
</radialGradient>
</defs>
</svg>
