<svg width="300" height="160" viewBox="0 0 300 160" fill="none" xmlns="http://www.w3.org/2000/svg">
<rect width="300" height="160" fill="#D9D9D9" fill-opacity="0.5"/>
<path d="M151.667 59.6665H145C144.083 59.6665 143.342 60.4165 143.342 61.3332L143.333 74.6665C143.333 75.5832 144.075 76.3332 144.992 76.3332H155C155.917 76.3332 156.667 75.5832 156.667 74.6665V64.6665L151.667 59.6665ZM155 74.6665H145V61.3332H150.833V65.4998H155V74.6665ZM146.667 70.5082L147.842 71.6832L149.167 70.3665V73.8332H150.833V70.3665L152.158 71.6915L153.333 70.5082L150.008 67.1665L146.667 70.5082Z" fill="#828282"/>
<path d="M68.6153 100.904V97.614H69.0913C69.4367 97.6047 69.7213 97.418 69.9453 97.054C70.1787 96.69 70.3607 96.088 70.4913 95.248C70.6313 94.408 70.72 93.2787 70.7573 91.86L70.8273 89.06H77.2253V97.614H78.4853V100.904H77.0993V99H70.0013V100.904H68.6153ZM71.0793 97.614H75.6433V90.446H72.2833L72.2413 92.07C72.1947 93.6847 72.0827 94.9307 71.9053 95.808C71.7373 96.676 71.462 97.278 71.0793 97.614ZM83.1818 99.14C82.4164 99.14 81.7491 98.9673 81.1798 98.622C80.6198 98.2673 80.1858 97.8053 79.8778 97.236C79.5698 96.6573 79.4158 96.0273 79.4158 95.346C79.4158 94.6647 79.5698 94.0393 79.8778 93.47C80.1951 92.8913 80.6338 92.4293 81.1938 92.084C81.7631 91.7293 82.4258 91.552 83.1818 91.552C83.9378 91.552 84.5958 91.7293 85.1558 92.084C85.7251 92.4293 86.1638 92.8913 86.4718 93.47C86.7891 94.0393 86.9478 94.6647 86.9478 95.346C86.9478 96.0273 86.7938 96.6573 86.4858 97.236C86.1778 97.8053 85.7391 98.2673 85.1698 98.622C84.6098 98.9673 83.9471 99.14 83.1818 99.14ZM80.9978 95.36C80.9978 95.8267 81.0958 96.2467 81.2918 96.62C81.4878 96.9933 81.7491 97.2873 82.0758 97.502C82.4024 97.7167 82.7711 97.824 83.1818 97.824C83.5831 97.824 83.9471 97.7167 84.2738 97.502C84.6098 97.278 84.8758 96.9793 85.0718 96.606C85.2678 96.2327 85.3658 95.8127 85.3658 95.346C85.3658 94.8793 85.2678 94.4593 85.0718 94.086C84.8758 93.7127 84.6098 93.4187 84.2738 93.204C83.9471 92.98 83.5831 92.868 83.1818 92.868C82.7804 92.868 82.4118 92.98 82.0758 93.204C81.7491 93.4187 81.4878 93.7173 81.2918 94.1C81.0958 94.4733 80.9978 94.8933 80.9978 95.36ZM91.8556 99.14C90.633 99.14 89.7043 98.7713 89.0696 98.034C88.435 97.2967 88.1176 96.242 88.1176 94.87C88.1176 93.974 88.1923 93.218 88.3416 92.602C88.5003 91.9767 88.729 91.4633 89.0276 91.062C89.3356 90.6513 89.7136 90.32 90.1616 90.068C90.619 89.816 91.1463 89.6107 91.7436 89.452L94.8656 88.584L94.9216 89.872L91.8556 90.74C91.1276 90.964 90.5583 91.3 90.1476 91.748C89.7463 92.196 89.5036 92.8587 89.4196 93.736C89.681 93.26 90.0543 92.8867 90.5396 92.616C91.025 92.3453 91.599 92.21 92.2616 92.21C92.943 92.21 93.531 92.3547 94.0256 92.644C94.5203 92.924 94.903 93.316 95.1736 93.82C95.4443 94.324 95.5796 94.9027 95.5796 95.556C95.5796 96.2653 95.435 96.8907 95.1456 97.432C94.8656 97.964 94.4456 98.384 93.8856 98.692C93.335 98.9907 92.6583 99.14 91.8556 99.14ZM91.8556 97.824C92.5276 97.824 93.055 97.6233 93.4376 97.222C93.8203 96.8207 94.0116 96.2887 94.0116 95.626C94.0116 94.9913 93.8203 94.4733 93.4376 94.072C93.0643 93.6613 92.537 93.456 91.8556 93.456C91.2396 93.456 90.7263 93.6473 90.3156 94.03C89.9143 94.4127 89.7136 94.9447 89.7136 95.626C89.7136 96.27 89.9003 96.7973 90.2736 97.208C90.647 97.6187 91.1743 97.824 91.8556 97.824ZM96.4223 96.858C96.4223 96.3913 96.5529 95.9853 96.8143 95.64C97.0756 95.2853 97.4396 95.0147 97.9063 94.828C98.3823 94.632 98.9283 94.534 99.5443 94.534C99.8709 94.534 100.202 94.562 100.538 94.618C100.884 94.6647 101.187 94.7347 101.448 94.828V94.366C101.448 93.8527 101.294 93.4513 100.986 93.162C100.678 92.8727 100.235 92.728 99.6563 92.728C99.2549 92.728 98.8676 92.798 98.4943 92.938C98.1209 93.078 97.7336 93.2833 97.3323 93.554L96.8143 92.518C97.2996 92.2007 97.7849 91.9627 98.2703 91.804C98.7649 91.636 99.2829 91.552 99.8243 91.552C100.804 91.552 101.574 91.8133 102.134 92.336C102.704 92.8493 102.988 93.582 102.988 94.534V97.264C102.988 97.4413 103.016 97.5673 103.072 97.642C103.138 97.7167 103.245 97.7587 103.394 97.768V99C103.254 99.028 103.128 99.0467 103.016 99.056C102.904 99.0653 102.811 99.07 102.736 99.07C102.4 99.07 102.148 98.9907 101.98 98.832C101.822 98.664 101.728 98.4773 101.7 98.272L101.658 97.852C101.341 98.2627 100.935 98.58 100.44 98.804C99.9456 99.028 99.4463 99.14 98.9423 99.14C98.4569 99.14 98.0229 99.042 97.6403 98.846C97.2576 98.6407 96.9589 98.3653 96.7443 98.02C96.5296 97.6747 96.4223 97.2873 96.4223 96.858ZM101.084 97.306C101.327 97.0633 101.448 96.8347 101.448 96.62V95.78C100.898 95.5747 100.338 95.472 99.7683 95.472C99.2083 95.472 98.7509 95.5887 98.3963 95.822C98.0509 96.046 97.8783 96.3493 97.8783 96.732C97.8783 97.0493 98.0043 97.3433 98.2563 97.614C98.5176 97.8753 98.8909 98.006 99.3763 98.006C99.7029 98.006 100.02 97.9407 100.328 97.81C100.636 97.6793 100.888 97.5113 101.084 97.306ZM104.857 99V91.678H108.777C109.243 91.678 109.626 91.7667 109.925 91.944C110.233 92.112 110.461 92.3313 110.611 92.602C110.76 92.8727 110.835 93.162 110.835 93.47C110.835 93.8713 110.737 94.226 110.541 94.534C110.354 94.842 110.083 95.0753 109.729 95.234C110.149 95.3553 110.489 95.57 110.751 95.878C111.021 96.186 111.157 96.5733 111.157 97.04C111.157 97.684 110.928 98.174 110.471 98.51C110.013 98.8367 109.407 99 108.651 99H104.857ZM106.313 94.814H108.385C108.674 94.814 108.912 94.7067 109.099 94.492C109.285 94.2773 109.379 94.0253 109.379 93.736C109.379 93.4653 109.29 93.232 109.113 93.036C108.935 92.84 108.702 92.742 108.413 92.742H106.313V94.814ZM106.313 97.936H108.609C108.907 97.936 109.159 97.8333 109.365 97.628C109.57 97.4133 109.673 97.1613 109.673 96.872C109.673 96.5733 109.575 96.3213 109.379 96.116C109.183 95.9107 108.935 95.808 108.637 95.808H106.313V97.936ZM112.622 99V91.692H114.162V96.942L117.872 91.678H119.272V99H117.732V93.862L114.064 99H112.622ZM122.848 99V93.036H120.426V91.678H126.824V93.036H124.388V99H122.848ZM127.976 99V91.678H129.516V94.086H131.266C132.134 94.086 132.792 94.3053 133.24 94.744C133.697 95.1827 133.926 95.7613 133.926 96.48C133.926 97.208 133.706 97.81 133.268 98.286C132.838 98.762 132.204 99 131.364 99H127.976ZM129.516 97.81H131.126C131.583 97.81 131.914 97.684 132.12 97.432C132.325 97.1707 132.428 96.8627 132.428 96.508C132.428 96.1627 132.33 95.864 132.134 95.612C131.938 95.36 131.597 95.234 131.112 95.234H129.516V97.81ZM138.64 99V91.692H140.18V96.942L143.89 91.678H145.29V99H143.75V93.862L140.082 99H138.64ZM149.58 99.112C148.833 99.112 148.203 98.9767 147.69 98.706C147.186 98.426 146.799 98.0433 146.528 97.558L147.774 96.998C147.933 97.2687 148.157 97.4833 148.446 97.642C148.735 97.7913 149.085 97.866 149.496 97.866C149.991 97.866 150.373 97.7633 150.644 97.558C150.915 97.3527 151.05 97.082 151.05 96.746C151.05 96.438 150.938 96.1907 150.714 96.004C150.49 95.808 150.173 95.7053 149.762 95.696H149.006V94.716H149.79C150.07 94.716 150.294 94.6273 150.462 94.45C150.639 94.2633 150.728 94.03 150.728 93.75C150.728 93.47 150.621 93.246 150.406 93.078C150.201 92.9007 149.888 92.812 149.468 92.812C149.104 92.812 148.801 92.882 148.558 93.022C148.325 93.1527 148.138 93.3487 147.998 93.61L146.836 92.994C147.079 92.546 147.429 92.196 147.886 91.944C148.353 91.692 148.903 91.566 149.538 91.566C150.275 91.566 150.887 91.7387 151.372 92.084C151.857 92.4293 152.1 92.9193 152.1 93.554C152.1 93.89 152.021 94.2073 151.862 94.506C151.703 94.7953 151.456 95.01 151.12 95.15C151.568 95.29 151.904 95.5187 152.128 95.836C152.361 96.1533 152.478 96.5313 152.478 96.97C152.478 97.418 152.352 97.8053 152.1 98.132C151.857 98.4493 151.517 98.692 151.078 98.86C150.639 99.028 150.14 99.112 149.58 99.112ZM157.188 99.14C156.422 99.14 155.755 98.9673 155.186 98.622C154.626 98.2673 154.192 97.8053 153.884 97.236C153.576 96.6573 153.422 96.0273 153.422 95.346C153.422 94.6647 153.576 94.0393 153.884 93.47C154.201 92.8913 154.64 92.4293 155.2 92.084C155.769 91.7293 156.432 91.552 157.188 91.552C157.944 91.552 158.602 91.7293 159.162 92.084C159.731 92.4293 160.17 92.8913 160.478 93.47C160.795 94.0393 160.954 94.6647 160.954 95.346C160.954 96.0273 160.8 96.6573 160.492 97.236C160.184 97.8053 159.745 98.2673 159.176 98.622C158.616 98.9673 157.953 99.14 157.188 99.14ZM155.004 95.36C155.004 95.8267 155.102 96.2467 155.298 96.62C155.494 96.9933 155.755 97.2873 156.082 97.502C156.408 97.7167 156.777 97.824 157.188 97.824C157.589 97.824 157.953 97.7167 158.28 97.502C158.616 97.278 158.882 96.9793 159.078 96.606C159.274 96.2327 159.372 95.8127 159.372 95.346C159.372 94.8793 159.274 94.4593 159.078 94.086C158.882 93.7127 158.616 93.4187 158.28 93.204C157.953 92.98 157.589 92.868 157.188 92.868C156.786 92.868 156.418 92.98 156.082 93.204C155.755 93.4187 155.494 93.7173 155.298 94.1C155.102 94.4733 155.004 94.8933 155.004 95.36ZM165.862 99.14C164.639 99.14 163.71 98.7713 163.076 98.034C162.441 97.2967 162.124 96.242 162.124 94.87C162.124 93.974 162.198 93.218 162.348 92.602C162.506 91.9767 162.735 91.4633 163.034 91.062C163.342 90.6513 163.72 90.32 164.168 90.068C164.625 89.816 165.152 89.6107 165.75 89.452L168.872 88.584L168.928 89.872L165.862 90.74C165.134 90.964 164.564 91.3 164.154 91.748C163.752 92.196 163.51 92.8587 163.426 93.736C163.687 93.26 164.06 92.8867 164.546 92.616C165.031 92.3453 165.605 92.21 166.268 92.21C166.949 92.21 167.537 92.3547 168.032 92.644C168.526 92.924 168.909 93.316 169.18 93.82C169.45 94.324 169.586 94.9027 169.586 95.556C169.586 96.2653 169.441 96.8907 169.152 97.432C168.872 97.964 168.452 98.384 167.892 98.692C167.341 98.9907 166.664 99.14 165.862 99.14ZM165.862 97.824C166.534 97.824 167.061 97.6233 167.444 97.222C167.826 96.8207 168.018 96.2887 168.018 95.626C168.018 94.9913 167.826 94.4733 167.444 94.072C167.07 93.6613 166.543 93.456 165.862 93.456C165.246 93.456 164.732 93.6473 164.322 94.03C163.92 94.4127 163.72 94.9447 163.72 95.626C163.72 96.27 163.906 96.7973 164.28 97.208C164.653 97.6187 165.18 97.824 165.862 97.824ZM175.132 99.14C174.544 99.14 174.026 99 173.578 98.72C173.13 98.44 172.775 98.076 172.514 97.628V101.982H170.974V91.678H172.332V92.994C172.612 92.5553 172.976 92.2053 173.424 91.944C173.872 91.6827 174.371 91.552 174.922 91.552C175.594 91.552 176.186 91.7293 176.7 92.084C177.222 92.4293 177.633 92.8913 177.932 93.47C178.23 94.0393 178.38 94.66 178.38 95.332C178.38 96.0413 178.24 96.6853 177.96 97.264C177.68 97.8333 177.297 98.2907 176.812 98.636C176.326 98.972 175.766 99.14 175.132 99.14ZM174.628 97.824C175.066 97.824 175.444 97.7073 175.762 97.474C176.088 97.2313 176.34 96.9233 176.518 96.55C176.704 96.1673 176.798 95.7613 176.798 95.332C176.798 94.884 176.695 94.4733 176.49 94.1C176.294 93.7267 176.023 93.428 175.678 93.204C175.342 92.98 174.954 92.868 174.516 92.868C174.254 92.868 173.979 92.9333 173.69 93.064C173.41 93.1947 173.162 93.3673 172.948 93.582C172.733 93.7967 172.588 94.0393 172.514 94.31V96.228C172.7 96.676 172.985 97.054 173.368 97.362C173.76 97.67 174.18 97.824 174.628 97.824ZM179.233 96.858C179.233 96.3913 179.363 95.9853 179.625 95.64C179.886 95.2853 180.25 95.0147 180.717 94.828C181.193 94.632 181.739 94.534 182.355 94.534C182.681 94.534 183.013 94.562 183.349 94.618C183.694 94.6647 183.997 94.7347 184.259 94.828V94.366C184.259 93.8527 184.105 93.4513 183.797 93.162C183.489 92.8727 183.045 92.728 182.467 92.728C182.065 92.728 181.678 92.798 181.305 92.938C180.931 93.078 180.544 93.2833 180.143 93.554L179.625 92.518C180.11 92.2007 180.595 91.9627 181.081 91.804C181.575 91.636 182.093 91.552 182.635 91.552C183.615 91.552 184.385 91.8133 184.945 92.336C185.514 92.8493 185.799 93.582 185.799 94.534V97.264C185.799 97.4413 185.827 97.5673 185.883 97.642C185.948 97.7167 186.055 97.7587 186.205 97.768V99C186.065 99.028 185.939 99.0467 185.827 99.056C185.715 99.0653 185.621 99.07 185.547 99.07C185.211 99.07 184.959 98.9907 184.791 98.832C184.632 98.664 184.539 98.4773 184.511 98.272L184.469 97.852C184.151 98.2627 183.745 98.58 183.251 98.804C182.756 99.028 182.257 99.14 181.753 99.14C181.267 99.14 180.833 99.042 180.451 98.846C180.068 98.6407 179.769 98.3653 179.555 98.02C179.34 97.6747 179.233 97.2873 179.233 96.858ZM183.895 97.306C184.137 97.0633 184.259 96.8347 184.259 96.62V95.78C183.708 95.5747 183.148 95.472 182.579 95.472C182.019 95.472 181.561 95.5887 181.207 95.822C180.861 96.046 180.689 96.3493 180.689 96.732C180.689 97.0493 180.815 97.3433 181.067 97.614C181.328 97.8753 181.701 98.006 182.187 98.006C182.513 98.006 182.831 97.9407 183.139 97.81C183.447 97.6793 183.699 97.5113 183.895 97.306ZM187.149 99L189.781 95.22L187.359 91.678H189.081L191.069 94.59H191.755V91.678H193.337V94.59H194.051L196.011 91.678H197.733L195.311 95.22L197.957 99H196.207L194.051 95.934H193.337V99H191.755V95.934H191.069L188.899 99H187.149ZM202.606 99.14C201.85 99.14 201.188 98.9673 200.618 98.622C200.049 98.2767 199.606 97.8193 199.288 97.25C198.971 96.6713 198.812 96.0413 198.812 95.36C198.812 94.6693 198.971 94.0347 199.288 93.456C199.606 92.8773 200.049 92.4153 200.618 92.07C201.188 91.7247 201.855 91.552 202.62 91.552C203.386 91.552 204.048 91.7293 204.608 92.084C205.168 92.4293 205.598 92.8867 205.896 93.456C206.204 94.0253 206.358 94.6367 206.358 95.29C206.358 95.5233 206.344 95.71 206.316 95.85H200.45C200.478 96.2793 200.595 96.6573 200.8 96.984C201.015 97.3013 201.281 97.5533 201.598 97.74C201.925 97.9173 202.28 98.006 202.662 98.006C203.073 98.006 203.46 97.9033 203.824 97.698C204.188 97.4927 204.44 97.222 204.58 96.886L205.896 97.264C205.644 97.8147 205.224 98.2673 204.636 98.622C204.058 98.9673 203.381 99.14 202.606 99.14ZM200.408 94.828H204.832C204.795 94.408 204.674 94.0393 204.468 93.722C204.263 93.3953 203.997 93.1433 203.67 92.966C203.353 92.7793 202.998 92.686 202.606 92.686C202.224 92.686 201.869 92.7793 201.542 92.966C201.225 93.1433 200.964 93.3953 200.758 93.722C200.553 94.0393 200.436 94.408 200.408 94.828ZM207.614 99V91.678H209.154V94.59H212.556V91.678H214.096V99H212.556V95.92H209.154V99H207.614ZM215.954 99V91.692H217.494V96.942L221.204 91.678H222.604V99H221.064V93.862L217.396 99H215.954ZM227.763 99.14C227.007 99.14 226.344 98.9673 225.775 98.622C225.205 98.2767 224.762 97.8193 224.445 97.25C224.127 96.6713 223.969 96.0413 223.969 95.36C223.969 94.6693 224.127 94.0347 224.445 93.456C224.762 92.8773 225.205 92.4153 225.775 92.07C226.344 91.7247 227.011 91.552 227.777 91.552C228.542 91.552 229.205 91.7293 229.765 92.084C230.325 92.4293 230.754 92.8867 231.053 93.456C231.361 94.0253 231.515 94.6367 231.515 95.29C231.515 95.5233 231.501 95.71 231.473 95.85H225.607C225.635 96.2793 225.751 96.6573 225.957 96.984C226.171 97.3013 226.437 97.5533 226.755 97.74C227.081 97.9173 227.436 98.006 227.819 98.006C228.229 98.006 228.617 97.9033 228.981 97.698C229.345 97.4927 229.597 97.222 229.737 96.886L231.053 97.264C230.801 97.8147 230.381 98.2673 229.793 98.622C229.214 98.9673 228.537 99.14 227.763 99.14ZM225.565 94.828H229.989C229.951 94.408 229.83 94.0393 229.625 93.722C229.419 93.3953 229.153 93.1433 228.827 92.966C228.509 92.7793 228.155 92.686 227.763 92.686C227.38 92.686 227.025 92.7793 226.699 92.966C226.381 93.1433 226.12 93.3953 225.915 93.722C225.709 94.0393 225.593 94.408 225.565 94.828Z" fill="#828282"/>
</svg>
