<svg width="36" height="36" viewBox="0 0 36 36" fill="none" xmlns="http://www.w3.org/2000/svg">
<rect width="36" height="36" rx="18" fill="#F3F4F8"/>
<circle cx="18" cy="18" r="18" fill="#F3F4F8"/>
<path fill-rule="evenodd" clip-rule="evenodd" d="M17 18H19C21.7614 18 24 20.2386 24 23C24 23.5128 23.614 23.9355 23.1166 23.9933L23 24H13C12.4477 24 12 23.5523 12 23C12 20.3112 14.1223 18.1182 16.7831 18.0046L17 18H19H17ZM18 12C19.6569 12 21 13.3431 21 15C21 16.6569 19.6569 18 18 18C16.3431 18 15 16.6569 15 15C15 13.3431 16.3431 12 18 12Z" fill="#858EA3"/>
</svg>
